<svg xmlns="http://www.w3.org/2000/svg" version="1.1" xmlns:xlink="http://www.w3.org/1999/xlink" width="200" height="232"><svg xmlns="http://www.w3.org/2000/svg" version="1.1" xmlns:xlink="http://www.w3.org/1999/xlink" width="200" height="232"><svg xmlns="http://www.w3.org/2000/svg" viewBox="0 0 200 232" width="200" height="232">
  <defs>
    <linearGradient id="bg" x1="0%" y1="0%" x2="100%" y2="100%">
      <stop offset="0%" style="stop-color:#1a5276;stop-opacity:1"></stop>
      <stop offset="100%" style="stop-color:#2980b9;stop-opacity:1"></stop>
    </linearGradient>
  </defs>
  <polygon points="100,2 196,60 196,172 100,230 4,172 4,60" fill="url(#bg)" stroke="#154360" stroke-width="4"></polygon>
  <!-- Globe -->
  <circle cx="100" cy="65" r="22" fill="none" stroke="#ecf0f1" stroke-width="2.5" opacity="0.9"></circle>
  <ellipse cx="100" cy="65" rx="10" ry="22" fill="none" stroke="#ecf0f1" stroke-width="1.5" opacity="0.7"></ellipse>
  <line x1="78" y1="65" x2="122" y2="65" stroke="#ecf0f1" stroke-width="1.5" opacity="0.7"></line>
  <line x1="82" y1="53" x2="118" y2="53" stroke="#ecf0f1" stroke-width="1" opacity="0.5"></line>
  <line x1="82" y1="77" x2="118" y2="77" stroke="#ecf0f1" stroke-width="1" opacity="0.5"></line>
  <!-- Export arrow -->
  <g transform="translate(100,98)">
    <line x1="-25" y1="0" x2="25" y2="0" stroke="#f39c12" stroke-width="5" stroke-linecap="round"></line>
    <polyline points="15,-10 25,0 15,10" fill="none" stroke="#e67e22" stroke-width="5" stroke-linecap="round" stroke-linejoin="round"></polyline>
  </g>
  <!-- Import arrow -->
  <g transform="translate(100,118)">
    <line x1="25" y1="0" x2="-25" y2="0" stroke="#27ae60" stroke-width="5" stroke-linecap="round"></line>
    <polyline points="-15,-10 -25,0 -15,10" fill="none" stroke="#27ae60" stroke-width="5" stroke-linecap="round" stroke-linejoin="round"></polyline>
  </g>
  <!-- Package name -->
  <text x="100" y="158" text-anchor="middle" font-family="'Fira Code','Menlo','Consolas',monospace" font-size="32" font-weight="bold" fill="#ecf0f1" letter-spacing="2">comex</text>
  <text x="100" y="178" text-anchor="middle" font-family="'Segoe UI','Helvetica',sans-serif" font-size="11" fill="#bdc3c7" letter-spacing="1">COMEXSTAT API</text>
  <!-- BR flag accent -->
  <line x1="60" y1="190" x2="85" y2="190" stroke="#27ae60" stroke-width="2.5" stroke-linecap="round"></line>
  <line x1="88" y1="190" x2="113" y2="190" stroke="#f1c40f" stroke-width="2.5" stroke-linecap="round"></line>
  <line x1="116" y1="190" x2="141" y2="190" stroke="#2980b9" stroke-width="2.5" stroke-linecap="round"></line>
</svg></svg><style>@media (prefers-color-scheme: light) { :root { filter: none; } }
@media (prefers-color-scheme: dark) { :root { filter: none; } }
</style></svg>